<mxfile host="app.diagrams.net" modified="2024-02-03T06:57:05.750Z" agent="Mozilla/5.0 (Windows NT 10.0; Win64; x64) AppleWebKit/537.36 (KHTML, like Gecko) Chrome/121.0.0.0 Safari/537.36" etag="fLMOvPLcTccUPJ1K84LD" version="22.1.21" type="github">
  <diagram name="Page-1" id="35IXv1297PyhKsOuT1ah">
    <mxGraphModel dx="954" dy="608" grid="1" gridSize="10" guides="1" tooltips="1" connect="1" arrows="1" fold="1" page="1" pageScale="1" pageWidth="850" pageHeight="1100" math="0" shadow="0">
      <root>
        <mxCell id="0" />
        <mxCell id="1" parent="0" />
        <mxCell id="fIfwHxPgyny8OPwabaXH-8" style="edgeStyle=orthogonalEdgeStyle;rounded=0;orthogonalLoop=1;jettySize=auto;html=1;exitX=1;exitY=0.5;exitDx=0;exitDy=0;entryX=0;entryY=0.5;entryDx=0;entryDy=0;" edge="1" parent="1" source="fIfwHxPgyny8OPwabaXH-1" target="fIfwHxPgyny8OPwabaXH-5">
          <mxGeometry relative="1" as="geometry" />
        </mxCell>
        <mxCell id="fIfwHxPgyny8OPwabaXH-1" value="make purchase request" style="rounded=1;whiteSpace=wrap;html=1;" vertex="1" parent="1">
          <mxGeometry x="120" y="100" width="120" height="60" as="geometry" />
        </mxCell>
        <mxCell id="fIfwHxPgyny8OPwabaXH-22" style="edgeStyle=orthogonalEdgeStyle;rounded=0;orthogonalLoop=1;jettySize=auto;html=1;exitX=0.5;exitY=1;exitDx=0;exitDy=0;entryX=0.5;entryY=0;entryDx=0;entryDy=0;" edge="1" parent="1" source="fIfwHxPgyny8OPwabaXH-2" target="fIfwHxPgyny8OPwabaXH-17">
          <mxGeometry relative="1" as="geometry" />
        </mxCell>
        <mxCell id="fIfwHxPgyny8OPwabaXH-2" value="write purchase order" style="rounded=1;whiteSpace=wrap;html=1;" vertex="1" parent="1">
          <mxGeometry x="390" y="580" width="120" height="60" as="geometry" />
        </mxCell>
        <mxCell id="fIfwHxPgyny8OPwabaXH-19" style="edgeStyle=orthogonalEdgeStyle;rounded=0;orthogonalLoop=1;jettySize=auto;html=1;exitX=0;exitY=0.5;exitDx=0;exitDy=0;entryX=1;entryY=0.5;entryDx=0;entryDy=0;" edge="1" parent="1" source="fIfwHxPgyny8OPwabaXH-3" target="fIfwHxPgyny8OPwabaXH-16">
          <mxGeometry relative="1" as="geometry" />
        </mxCell>
        <mxCell id="fIfwHxPgyny8OPwabaXH-3" value="develop bid" style="rounded=1;whiteSpace=wrap;html=1;" vertex="1" parent="1">
          <mxGeometry x="670" y="450" width="120" height="60" as="geometry" />
        </mxCell>
        <mxCell id="fIfwHxPgyny8OPwabaXH-18" style="edgeStyle=orthogonalEdgeStyle;rounded=0;orthogonalLoop=1;jettySize=auto;html=1;exitX=1;exitY=0.5;exitDx=0;exitDy=0;entryX=0.5;entryY=0;entryDx=0;entryDy=0;" edge="1" parent="1" source="fIfwHxPgyny8OPwabaXH-4" target="fIfwHxPgyny8OPwabaXH-3">
          <mxGeometry relative="1" as="geometry" />
        </mxCell>
        <mxCell id="fIfwHxPgyny8OPwabaXH-4" value="request bid" style="rounded=1;whiteSpace=wrap;html=1;" vertex="1" parent="1">
          <mxGeometry x="520" y="330" width="120" height="60" as="geometry" />
        </mxCell>
        <mxCell id="fIfwHxPgyny8OPwabaXH-7" style="edgeStyle=orthogonalEdgeStyle;rounded=0;orthogonalLoop=1;jettySize=auto;html=1;exitX=0.5;exitY=1;exitDx=0;exitDy=0;entryX=0.5;entryY=0;entryDx=0;entryDy=0;" edge="1" parent="1" source="fIfwHxPgyny8OPwabaXH-5" target="fIfwHxPgyny8OPwabaXH-6">
          <mxGeometry relative="1" as="geometry" />
        </mxCell>
        <mxCell id="fIfwHxPgyny8OPwabaXH-5" value="receive request" style="rounded=1;whiteSpace=wrap;html=1;" vertex="1" parent="1">
          <mxGeometry x="370" y="100" width="120" height="60" as="geometry" />
        </mxCell>
        <mxCell id="fIfwHxPgyny8OPwabaXH-9" style="edgeStyle=orthogonalEdgeStyle;rounded=0;orthogonalLoop=1;jettySize=auto;html=1;exitX=1;exitY=0.5;exitDx=0;exitDy=0;" edge="1" parent="1" source="fIfwHxPgyny8OPwabaXH-6" target="fIfwHxPgyny8OPwabaXH-4">
          <mxGeometry relative="1" as="geometry" />
        </mxCell>
        <mxCell id="fIfwHxPgyny8OPwabaXH-25" style="edgeStyle=orthogonalEdgeStyle;rounded=0;orthogonalLoop=1;jettySize=auto;html=1;exitX=0;exitY=0.5;exitDx=0;exitDy=0;entryX=0.25;entryY=0;entryDx=0;entryDy=0;" edge="1" parent="1" source="fIfwHxPgyny8OPwabaXH-6" target="fIfwHxPgyny8OPwabaXH-2">
          <mxGeometry relative="1" as="geometry" />
        </mxCell>
        <mxCell id="fIfwHxPgyny8OPwabaXH-6" value="" style="rhombus;whiteSpace=wrap;html=1;" vertex="1" parent="1">
          <mxGeometry x="390" y="230" width="80" height="80" as="geometry" />
        </mxCell>
        <mxCell id="fIfwHxPgyny8OPwabaXH-10" value="&amp;lt;1500" style="text;html=1;align=center;verticalAlign=middle;resizable=0;points=[];autosize=1;strokeColor=none;fillColor=none;" vertex="1" parent="1">
          <mxGeometry x="500" y="238" width="60" height="30" as="geometry" />
        </mxCell>
        <mxCell id="fIfwHxPgyny8OPwabaXH-11" value="NO" style="text;html=1;align=center;verticalAlign=middle;resizable=0;points=[];autosize=1;strokeColor=none;fillColor=none;" vertex="1" parent="1">
          <mxGeometry x="510" y="268" width="40" height="30" as="geometry" />
        </mxCell>
        <mxCell id="fIfwHxPgyny8OPwabaXH-12" value="SUHANI SINGH&lt;br&gt;12213107" style="text;html=1;align=center;verticalAlign=middle;resizable=0;points=[];autosize=1;strokeColor=none;fillColor=none;" vertex="1" parent="1">
          <mxGeometry x="615" y="153" width="110" height="40" as="geometry" />
        </mxCell>
        <mxCell id="fIfwHxPgyny8OPwabaXH-15" style="edgeStyle=orthogonalEdgeStyle;rounded=0;orthogonalLoop=1;jettySize=auto;html=1;exitX=0.5;exitY=1;exitDx=0;exitDy=0;entryX=0.5;entryY=0;entryDx=0;entryDy=0;" edge="1" parent="1" source="fIfwHxPgyny8OPwabaXH-13" target="fIfwHxPgyny8OPwabaXH-1">
          <mxGeometry relative="1" as="geometry" />
        </mxCell>
        <mxCell id="fIfwHxPgyny8OPwabaXH-13" value="" style="ellipse;html=1;shape=startState;fillColor=#000000;strokeColor=#ff0000;" vertex="1" parent="1">
          <mxGeometry x="170" y="30" width="30" height="30" as="geometry" />
        </mxCell>
        <mxCell id="fIfwHxPgyny8OPwabaXH-20" style="edgeStyle=orthogonalEdgeStyle;rounded=0;orthogonalLoop=1;jettySize=auto;html=1;exitX=0;exitY=0.5;exitDx=0;exitDy=0;" edge="1" parent="1" source="fIfwHxPgyny8OPwabaXH-16" target="fIfwHxPgyny8OPwabaXH-2">
          <mxGeometry relative="1" as="geometry" />
        </mxCell>
        <mxCell id="fIfwHxPgyny8OPwabaXH-16" value="select bid" style="rounded=1;whiteSpace=wrap;html=1;" vertex="1" parent="1">
          <mxGeometry x="520" y="450" width="120" height="60" as="geometry" />
        </mxCell>
        <mxCell id="fIfwHxPgyny8OPwabaXH-24" style="edgeStyle=orthogonalEdgeStyle;rounded=0;orthogonalLoop=1;jettySize=auto;html=1;exitX=0.5;exitY=1;exitDx=0;exitDy=0;entryX=0.5;entryY=0;entryDx=0;entryDy=0;" edge="1" parent="1" source="fIfwHxPgyny8OPwabaXH-17" target="fIfwHxPgyny8OPwabaXH-23">
          <mxGeometry relative="1" as="geometry" />
        </mxCell>
        <mxCell id="fIfwHxPgyny8OPwabaXH-17" value="send out bid" style="rounded=1;whiteSpace=wrap;html=1;" vertex="1" parent="1">
          <mxGeometry x="390" y="710" width="120" height="60" as="geometry" />
        </mxCell>
        <mxCell id="fIfwHxPgyny8OPwabaXH-23" value="" style="ellipse;html=1;shape=endState;fillColor=#000000;strokeColor=#ff0000;" vertex="1" parent="1">
          <mxGeometry x="435" y="820" width="30" height="30" as="geometry" />
        </mxCell>
        <mxCell id="fIfwHxPgyny8OPwabaXH-26" value="YES" style="text;html=1;align=center;verticalAlign=middle;resizable=0;points=[];autosize=1;strokeColor=none;fillColor=none;" vertex="1" parent="1">
          <mxGeometry x="360" y="310" width="50" height="30" as="geometry" />
        </mxCell>
      </root>
    </mxGraphModel>
  </diagram>
</mxfile>
